<svg width="354" height="75" viewBox="0 0 354 75" fill="none" xmlns="http://www.w3.org/2000/svg">
<g clip-path="url(#clip0_551_1589)">
<path fill-rule="evenodd" clip-rule="evenodd" d="M12.4539 36.0926C15.7839 36.0926 19.5109 42.2156 20.0859 44.8086C20.6609 47.4026 19.0899 49.5376 16.6019 48.9206C15.5099 48.6496 13.3499 47.6136 12.4999 47.6296C11.5749 47.6456 10.1209 48.4656 8.91294 48.8816C6.25594 49.7976 4.19594 47.5986 4.90294 44.8086C5.67694 41.7576 9.38294 36.0926 12.4539 36.0926ZM23.2469 31.7026C24.4349 32.2416 24.8759 34.5226 24.1409 36.9726C23.4369 39.3136 21.8109 40.7786 19.5849 39.7686C17.6539 38.8916 17.4269 36.5906 18.6909 34.4986C19.9649 32.3916 22.0579 31.1626 23.2469 31.7026ZM1.27894 32.4086C0.234937 33.1376 0.218937 35.4046 1.36094 37.6236C2.45294 39.7436 4.27394 40.8596 6.22894 39.4936C7.92494 38.3086 7.73294 36.0606 6.14694 34.2786C4.55094 32.4856 2.32294 31.6796 1.27894 32.4086ZM16.9219 25.1166C18.2449 25.3676 19.2429 27.5446 19.1039 30.1786C18.9699 32.6956 17.6989 34.5606 15.2219 34.0906C13.0729 33.6836 12.2839 31.4336 13.0409 29.0296C13.8019 26.6086 15.5999 24.8656 16.9219 25.1166ZM6.62694 25.1746C5.35894 25.6256 4.70694 27.9306 5.24994 30.5116C5.76894 32.9786 7.31194 34.6256 9.68694 33.7806C11.7469 33.0486 12.1809 30.7036 11.0639 28.4446C9.93894 26.1686 7.89494 24.7236 6.62694 25.1746Z" fill="#332100"/>
</g>
<path d="M39.1528 49.0925V24.1248H43.6758V34.6946H55.2453V24.1248H59.7804V49.0925H55.2453V38.4861H43.6758V49.0925H39.1528ZM72.7946 49.4583C70.9172 49.4583 69.2957 49.0681 67.9303 48.2879C66.573 47.4995 65.5286 46.3861 64.7971 44.9475C64.0657 43.5008 63.6999 41.7981 63.6999 39.8393C63.6999 37.9131 64.0657 36.2226 64.7971 34.7678C65.5368 33.3048 66.5689 32.167 67.8937 31.3542C69.2185 30.5333 70.7749 30.1229 72.563 30.1229C73.7171 30.1229 74.8062 30.3098 75.8303 30.6837C76.8624 31.0494 77.7727 31.6184 78.5611 32.3905C79.3576 33.1626 79.9834 34.146 80.4386 35.3408C80.8937 36.5274 81.1213 37.9416 81.1213 39.5833V40.9366H65.7724V37.9619H76.8909C76.8828 37.1166 76.6999 36.3648 76.3423 35.7065C75.9847 35.04 75.4848 34.5158 74.8428 34.1338C74.2088 33.7518 73.4692 33.5608 72.6239 33.5608C71.7218 33.5608 70.9294 33.7803 70.2466 34.2192C69.5639 34.6499 69.0316 35.2189 68.6496 35.9259C68.2757 36.6249 68.0847 37.393 68.0766 38.2301V40.8268C68.0766 41.9159 68.2757 42.8506 68.674 43.6308C69.0722 44.403 69.629 44.9963 70.3442 45.4108C71.0594 45.8171 71.8965 46.0203 72.8556 46.0203C73.4977 46.0203 74.0788 45.9309 74.5989 45.7521C75.1191 45.5652 75.5702 45.2929 75.9522 44.9353C76.3342 44.5777 76.6227 44.1347 76.8177 43.6065L80.9384 44.0697C80.6783 45.1588 80.1825 46.1097 79.4511 46.9225C78.7277 47.7271 77.8012 48.3529 76.6715 48.7999C75.5417 49.2388 74.2495 49.4583 72.7946 49.4583ZM84.8548 49.0925V30.3667H89.134V33.4877H89.329C89.6704 32.4067 90.2556 31.5737 91.0846 30.9885C91.9217 30.3952 92.8767 30.0985 93.9495 30.0985C94.1934 30.0985 94.4656 30.1107 94.7664 30.1351C95.0752 30.1513 95.3312 30.1798 95.5344 30.2204V34.2801C95.3475 34.2151 95.0508 34.1582 94.6444 34.1094C94.2462 34.0526 93.8601 34.0241 93.4863 34.0241C92.6816 34.0241 91.9583 34.1989 91.3162 34.5483C90.6823 34.8897 90.1824 35.3651 89.8167 35.9747C89.451 36.5843 89.2681 37.2873 89.2681 38.0838V49.0925H84.8548ZM98.4664 49.0925V30.3667H102.685V33.5486H102.904C103.294 32.4758 103.94 31.6387 104.842 31.0372C105.745 30.4277 106.821 30.1229 108.073 30.1229C109.341 30.1229 110.41 30.4317 111.279 31.0494C112.157 31.659 112.775 32.4921 113.133 33.5486H113.328C113.742 32.5083 114.441 31.6793 115.424 31.0616C116.416 30.4358 117.59 30.1229 118.948 30.1229C120.671 30.1229 122.077 30.6674 123.166 31.7565C124.255 32.8456 124.8 34.4345 124.8 36.5233V49.0925H120.374V37.206C120.374 36.0438 120.065 35.1945 119.448 34.6581C118.83 34.1135 118.074 33.8412 117.18 33.8412C116.115 33.8412 115.282 34.1745 114.681 34.8409C114.087 35.4993 113.791 36.3567 113.791 37.4133V49.0925H109.463V37.0232C109.463 36.056 109.17 35.2839 108.585 34.7068C108.008 34.1298 107.252 33.8412 106.318 33.8412C105.684 33.8412 105.107 34.0038 104.586 34.3289C104.066 34.6459 103.652 35.0969 103.343 35.6821C103.034 36.2592 102.88 36.9338 102.88 37.7059V49.0925H98.4664ZM134.665 49.4705C133.479 49.4705 132.41 49.2591 131.459 48.8365C130.516 48.4058 129.769 47.7718 129.216 46.9347C128.671 46.0975 128.399 45.0653 128.399 43.8381C128.399 42.7815 128.594 41.9078 128.984 41.217C129.374 40.5261 129.907 39.9735 130.581 39.5589C131.256 39.1444 132.016 38.8315 132.861 38.6202C133.714 38.4008 134.596 38.2423 135.507 38.1448C136.604 38.031 137.494 37.9294 138.176 37.84C138.859 37.7424 139.355 37.5962 139.664 37.4011C139.981 37.1979 140.139 36.885 140.139 36.4624V36.3892C140.139 35.4708 139.867 34.7596 139.322 34.2557C138.778 33.7518 137.994 33.4999 136.97 33.4999C135.889 33.4999 135.031 33.7356 134.397 34.207C133.771 34.6784 133.349 35.2351 133.129 35.8772L129.009 35.292C129.334 34.1541 129.87 33.2032 130.618 32.4392C131.366 31.6671 132.28 31.0901 133.361 30.7081C134.442 30.318 135.637 30.1229 136.945 30.1229C137.847 30.1229 138.745 30.2286 139.639 30.4399C140.533 30.6512 141.35 31.0007 142.09 31.4883C142.829 31.9678 143.423 32.6221 143.87 33.4511C144.325 34.2801 144.552 35.3164 144.552 36.5599V49.0925H140.31V46.5202H140.164C139.895 47.0403 139.517 47.528 139.03 47.9831C138.55 48.4301 137.945 48.7918 137.213 49.0681C136.49 49.3364 135.641 49.4705 134.665 49.4705ZM135.811 46.2276C136.697 46.2276 137.465 46.0528 138.115 45.7034C138.766 45.3457 139.266 44.8743 139.615 44.2892C139.973 43.704 140.151 43.066 140.151 42.3751V40.1685C140.013 40.2823 139.778 40.388 139.444 40.4855C139.119 40.583 138.754 40.6684 138.347 40.7415C137.941 40.8147 137.538 40.8797 137.14 40.9366C136.742 40.9935 136.397 41.0422 136.104 41.0829C135.446 41.1723 134.856 41.3186 134.336 41.5217C133.816 41.7249 133.406 42.0094 133.105 42.3751C132.804 42.7327 132.654 43.196 132.654 43.7649C132.654 44.5777 132.95 45.1913 133.544 45.6058C134.137 46.0203 134.893 46.2276 135.811 46.2276ZM153.403 38.1204V49.0925H148.99V30.3667H153.208V33.5486H153.428C153.858 32.5002 154.545 31.6671 155.488 31.0494C156.439 30.4317 157.613 30.1229 159.011 30.1229C160.304 30.1229 161.429 30.3992 162.388 30.9519C163.356 31.5046 164.103 32.3051 164.632 33.3536C165.168 34.402 165.432 35.674 165.424 37.1695V49.0925H161.011V37.8522C161.011 36.6005 160.686 35.6212 160.035 34.9141C159.393 34.207 158.503 33.8534 157.366 33.8534C156.593 33.8534 155.907 34.0241 155.305 34.3655C154.712 34.6987 154.245 35.1823 153.903 35.8162C153.57 36.4502 153.403 37.2182 153.403 38.1204ZM176.859 49.4217C175.388 49.4217 174.072 49.0438 172.909 48.2879C171.747 47.532 170.829 46.4348 170.154 44.9963C169.48 43.5577 169.142 41.8103 169.142 39.754C169.142 37.6734 169.484 35.9178 170.166 34.4874C170.857 33.0488 171.788 31.9638 172.958 31.2323C174.129 30.4927 175.433 30.1229 176.872 30.1229C177.969 30.1229 178.871 30.3098 179.578 30.6837C180.285 31.0494 180.846 31.4924 181.26 32.0125C181.675 32.5246 181.996 33.0082 182.224 33.4633H182.406V24.1248H186.832V49.0925H182.492V46.1422H182.224C181.996 46.5974 181.667 47.081 181.236 47.593C180.805 48.0969 180.236 48.5277 179.529 48.8853C178.822 49.2429 177.932 49.4217 176.859 49.4217ZM178.091 45.8009C179.025 45.8009 179.822 45.5489 180.48 45.045C181.139 44.533 181.638 43.8218 181.98 42.9116C182.321 42.0013 182.492 40.9406 182.492 39.7296C182.492 38.5186 182.321 37.4661 181.98 36.5721C181.646 35.6781 181.151 34.9832 180.492 34.4874C179.842 33.9916 179.042 33.7437 178.091 33.7437C177.107 33.7437 176.286 33.9997 175.628 34.5118C174.97 35.0238 174.474 35.7309 174.141 36.633C173.807 37.5352 173.641 38.5674 173.641 39.7296C173.641 40.9 173.807 41.9444 174.141 42.8628C174.482 43.7731 174.982 44.4924 175.64 45.0206C176.307 45.5408 177.124 45.8009 178.091 45.8009ZM196.923 49.4705C195.737 49.4705 194.668 49.2591 193.717 48.8365C192.774 48.4058 192.026 47.7718 191.474 46.9347C190.929 46.0975 190.657 45.0653 190.657 43.8381C190.657 42.7815 190.852 41.9078 191.242 41.217C191.632 40.5261 192.165 39.9735 192.839 39.5589C193.514 39.1444 194.274 38.8315 195.119 38.6202C195.972 38.4008 196.854 38.2423 197.764 38.1448C198.862 38.031 199.752 37.9294 200.434 37.84C201.117 37.7424 201.613 37.5962 201.922 37.4011C202.239 37.1979 202.397 36.885 202.397 36.4624V36.3892C202.397 35.4708 202.125 34.7596 201.58 34.2557C201.036 33.7518 200.251 33.4999 199.227 33.4999C198.146 33.4999 197.289 33.7356 196.655 34.207C196.029 34.6784 195.607 35.2351 195.387 35.8772L191.266 35.292C191.592 34.1541 192.128 33.2032 192.876 32.4392C193.623 31.6671 194.538 31.0901 195.619 30.7081C196.7 30.318 197.894 30.1229 199.203 30.1229C200.105 30.1229 201.003 30.2286 201.897 30.4399C202.791 30.6512 203.608 31.0007 204.348 31.4883C205.087 31.9678 205.681 32.6221 206.128 33.4511C206.583 34.2801 206.81 35.3164 206.81 36.5599V49.0925H202.568V46.5202H202.421C202.153 47.0403 201.775 47.528 201.288 47.9831C200.808 48.4301 200.203 48.7918 199.471 49.0681C198.748 49.3364 197.898 49.4705 196.923 49.4705ZM198.069 46.2276C198.955 46.2276 199.723 46.0528 200.373 45.7034C201.024 45.3457 201.523 44.8743 201.873 44.2892C202.23 43.704 202.409 43.066 202.409 42.3751V40.1685C202.271 40.2823 202.035 40.388 201.702 40.4855C201.377 40.583 201.011 40.6684 200.605 40.7415C200.199 40.8147 199.796 40.8797 199.398 40.9366C199 40.9935 198.654 41.0422 198.362 41.0829C197.703 41.1723 197.114 41.3186 196.594 41.5217C196.074 41.7249 195.663 42.0094 195.363 42.3751C195.062 42.7327 194.912 43.196 194.912 43.7649C194.912 44.5777 195.208 45.1913 195.802 45.6058C196.395 46.0203 197.151 46.2276 198.069 46.2276ZM218.197 49.4217C216.726 49.4217 215.409 49.0438 214.247 48.2879C213.085 47.532 212.166 46.4348 211.492 44.9963C210.817 43.5577 210.48 41.8103 210.48 39.754C210.48 37.6734 210.821 35.9178 211.504 34.4874C212.195 33.0488 213.125 31.9638 214.296 31.2323C215.466 30.4927 216.771 30.1229 218.209 30.1229C219.306 30.1229 220.209 30.3098 220.916 30.6837C221.623 31.0494 222.184 31.4924 222.598 32.0125C223.013 32.5246 223.334 33.0082 223.561 33.4633H223.744V24.1248H228.169V49.0925H223.829V46.1422H223.561C223.334 46.5974 223.004 47.081 222.574 47.593C222.143 48.0969 221.574 48.5277 220.867 48.8853C220.16 49.2429 219.27 49.4217 218.197 49.4217ZM219.428 45.8009C220.363 45.8009 221.159 45.5489 221.818 45.045C222.476 44.533 222.976 43.8218 223.317 42.9116C223.659 42.0013 223.829 40.9406 223.829 39.7296C223.829 38.5186 223.659 37.4661 223.317 36.5721C222.984 35.6781 222.488 34.9832 221.83 34.4874C221.18 33.9916 220.379 33.7437 219.428 33.7437C218.445 33.7437 217.624 33.9997 216.966 34.5118C216.307 35.0238 215.812 35.7309 215.478 36.633C215.145 37.5352 214.978 38.5674 214.978 39.7296C214.978 40.9 215.145 41.9444 215.478 42.8628C215.82 43.7731 216.319 44.4924 216.978 45.0206C217.644 45.5408 218.461 45.8009 219.428 45.8009ZM244.789 49.0925H239.961L248.751 24.1248H254.335L263.137 49.0925H258.309L251.641 29.2451H251.446L244.789 49.0925ZM244.948 39.3029H258.114V42.9359H244.948V39.3029ZM270.644 38.1204V49.0925H266.231V30.3667H270.449V33.5486H270.668C271.099 32.5002 271.786 31.6671 272.729 31.0494C273.679 30.4317 274.854 30.1229 276.252 30.1229C277.544 30.1229 278.67 30.3992 279.629 30.9519C280.596 31.5046 281.344 32.3051 281.872 33.3536C282.408 34.402 282.673 35.674 282.664 37.1695V49.0925H278.251V37.8522C278.251 36.6005 277.926 35.6212 277.276 34.9141C276.634 34.207 275.744 33.8534 274.606 33.8534C273.834 33.8534 273.147 34.0241 272.546 34.3655C271.952 34.6987 271.485 35.1823 271.144 35.8162C270.81 36.4502 270.644 37.2182 270.644 38.1204ZM287.151 49.0925V30.3667H291.564V49.0925H287.151ZM289.37 27.709C288.671 27.709 288.069 27.4774 287.565 27.0141C287.061 26.5427 286.809 25.9779 286.809 25.3195C286.809 24.6531 287.061 24.0882 287.565 23.6249C288.069 23.1536 288.671 22.9179 289.37 22.9179C290.077 22.9179 290.678 23.1536 291.174 23.6249C291.678 24.0882 291.93 24.6531 291.93 25.3195C291.93 25.9779 291.678 26.5427 291.174 27.0141C290.678 27.4774 290.077 27.709 289.37 27.709ZM296.102 49.0925V30.3667H300.32V33.5486H300.54C300.93 32.4758 301.576 31.6387 302.478 31.0372C303.38 30.4277 304.457 30.1229 305.709 30.1229C306.977 30.1229 308.046 30.4317 308.915 31.0494C309.793 31.659 310.411 32.4921 310.768 33.5486H310.963C311.378 32.5083 312.077 31.6793 313.06 31.0616C314.052 30.4358 315.226 30.1229 316.584 30.1229C318.307 30.1229 319.713 30.6674 320.802 31.7565C321.891 32.8456 322.435 34.4345 322.435 36.5233V49.0925H318.01V37.206C318.01 36.0438 317.701 35.1945 317.083 34.6581C316.466 34.1135 315.71 33.8412 314.816 33.8412C313.751 33.8412 312.918 34.1745 312.317 34.8409C311.723 35.4993 311.427 36.3567 311.427 37.4133V49.0925H307.099V37.0232C307.099 36.056 306.806 35.2839 306.221 34.7068C305.644 34.1298 304.888 33.8412 303.953 33.8412C303.32 33.8412 302.742 34.0038 302.222 34.3289C301.702 34.6459 301.288 35.0969 300.979 35.6821C300.67 36.2592 300.516 36.9338 300.516 37.7059V49.0925H296.102ZM332.301 49.4705C331.115 49.4705 330.046 49.2591 329.095 48.8365C328.152 48.4058 327.404 47.7718 326.852 46.9347C326.307 46.0975 326.035 45.0653 326.035 43.8381C326.035 42.7815 326.23 41.9078 326.62 41.217C327.01 40.5261 327.543 39.9735 328.217 39.5589C328.892 39.1444 329.652 38.8315 330.497 38.6202C331.35 38.4008 332.232 38.2423 333.142 38.1448C334.24 38.031 335.13 37.9294 335.812 37.84C336.495 37.7424 336.991 37.5962 337.3 37.4011C337.617 37.1979 337.775 36.885 337.775 36.4624V36.3892C337.775 35.4708 337.503 34.7596 336.958 34.2557C336.414 33.7518 335.629 33.4999 334.605 33.4999C333.524 33.4999 332.667 33.7356 332.033 34.207C331.407 34.6784 330.985 35.2351 330.765 35.8772L326.644 35.292C326.97 34.1541 327.506 33.2032 328.254 32.4392C329.001 31.6671 329.916 31.0901 330.997 30.7081C332.078 30.318 333.272 30.1229 334.581 30.1229C335.483 30.1229 336.381 30.2286 337.275 30.4399C338.169 30.6512 338.986 31.0007 339.726 31.4883C340.465 31.9678 341.059 32.6221 341.506 33.4511C341.961 34.2801 342.188 35.3164 342.188 36.5599V49.0925H337.946V46.5202H337.799C337.531 47.0403 337.153 47.528 336.666 47.9831C336.186 48.4301 335.581 48.7918 334.849 49.0681C334.126 49.3364 333.277 49.4705 332.301 49.4705ZM333.447 46.2276C334.333 46.2276 335.101 46.0528 335.751 45.7034C336.402 45.3457 336.901 44.8743 337.251 44.2892C337.608 43.704 337.787 43.066 337.787 42.3751V40.1685C337.649 40.2823 337.413 40.388 337.08 40.4855C336.755 40.583 336.389 40.6684 335.983 40.7415C335.577 40.8147 335.174 40.8797 334.776 40.9366C334.378 40.9935 334.032 41.0422 333.74 41.0829C333.081 41.1723 332.492 41.3186 331.972 41.5217C331.452 41.7249 331.041 42.0094 330.741 42.3751C330.44 42.7327 330.29 43.196 330.29 43.7649C330.29 44.5777 330.586 45.1913 331.18 45.6058C331.773 46.0203 332.529 46.2276 333.447 46.2276ZM351.039 24.1248V49.0925H346.626V24.1248H351.039Z" fill="#332100"/>
<defs>
<clipPath id="clip0_551_1589">
<rect width="24" height="24" fill="white" transform="translate(0.5 25.0925)"/>
</clipPath>
</defs>
</svg>
