<svg width="149" height="82" viewBox="0 0 149 82" fill="none" xmlns="http://www.w3.org/2000/svg">
<g clip-path="url(#clip0_2_272)">
<path fill-rule="evenodd" clip-rule="evenodd" d="M11.9541 43C15.2841 43 19.0111 49.123 19.5861 51.716C20.1611 54.31 18.5901 56.445 16.1021 55.828C15.0101 55.557 12.8501 54.521 12.0001 54.537C11.0751 54.553 9.62106 55.373 8.41306 55.789C5.75606 56.705 3.69606 54.506 4.40306 51.716C5.17706 48.665 8.88306 43 11.9541 43ZM22.7471 38.61C23.9351 39.149 24.3761 41.43 23.6411 43.88C22.9371 46.221 21.3111 47.686 19.0851 46.676C17.1541 45.799 16.9271 43.498 18.1911 41.406C19.4651 39.299 21.5581 38.07 22.7471 38.61ZM0.779059 39.316C-0.264941 40.045 -0.280941 42.312 0.861059 44.531C1.95306 46.651 3.77406 47.767 5.72906 46.401C7.42506 45.216 7.23306 42.968 5.64706 41.186C4.05106 39.393 1.82306 38.587 0.779059 39.316ZM16.4221 32.024C17.7451 32.275 18.7431 34.452 18.6041 37.086C18.4701 39.603 17.1991 41.468 14.7221 40.998C12.5731 40.591 11.7841 38.341 12.5411 35.937C13.3021 33.516 15.1001 31.773 16.4221 32.024ZM6.12706 32.082C4.85906 32.533 4.20706 34.838 4.75006 37.419C5.26906 39.886 6.81206 41.533 9.18706 40.688C11.2471 39.956 11.6811 37.611 10.5641 35.352C9.43906 33.076 7.39506 31.631 6.12706 32.082Z" fill="#332100"/>
</g>
<path d="M37.4347 36V21.4545H40.0696V27.6122H46.8097V21.4545H49.4517V36H46.8097V29.821H40.0696V36H37.4347ZM57.0334 36.2131C55.9396 36.2131 54.995 35.9858 54.1996 35.5312C53.4089 35.072 52.8004 34.4233 52.3743 33.5852C51.9482 32.7424 51.7351 31.7505 51.7351 30.6094C51.7351 29.4872 51.9482 28.5024 52.3743 27.6548C52.8052 26.8026 53.4065 26.1397 54.1783 25.6662C54.95 25.188 55.8568 24.9489 56.8984 24.9489C57.5708 24.9489 58.2053 25.0578 58.8018 25.2756C59.4032 25.4886 59.9335 25.8201 60.3928 26.2699C60.8568 26.7197 61.2214 27.2926 61.4865 27.9886C61.7517 28.6799 61.8842 29.5038 61.8842 30.4602V31.2486H52.9425V29.5156H59.4197C59.415 29.0232 59.3085 28.5852 59.1001 28.2017C58.8918 27.8134 58.6006 27.508 58.2266 27.2855C57.8572 27.063 57.4264 26.9517 56.9339 26.9517C56.4084 26.9517 55.9467 27.0795 55.549 27.3352C55.1513 27.5862 54.8411 27.9176 54.6186 28.3295C54.4008 28.7367 54.2895 29.1842 54.2848 29.6719V31.1847C54.2848 31.8191 54.4008 32.3636 54.6328 32.8182C54.8648 33.268 55.1892 33.6136 55.6058 33.8551C56.0225 34.0919 56.5102 34.2102 57.0689 34.2102C57.4429 34.2102 57.7815 34.1581 58.0845 34.054C58.3875 33.9451 58.6503 33.7865 58.8729 33.5781C59.0954 33.3698 59.2635 33.1117 59.3771 32.804L61.7777 33.0739C61.6262 33.7083 61.3374 34.2623 60.9112 34.7358C60.4898 35.2045 59.95 35.5691 59.2919 35.8295C58.6338 36.0852 57.8809 36.2131 57.0334 36.2131ZM64.0593 36V25.0909H66.5522V26.9091H66.6658C66.8647 26.2794 67.2056 25.794 67.6886 25.4531C68.1763 25.1075 68.7326 24.9347 69.3576 24.9347C69.4996 24.9347 69.6583 24.9418 69.8335 24.956C70.0134 24.9654 70.1625 24.982 70.2809 25.0057V27.3707C70.172 27.3329 69.9992 27.2997 69.7624 27.2713C69.5304 27.2382 69.3055 27.2216 69.0877 27.2216C68.619 27.2216 68.1976 27.3234 67.8235 27.527C67.4542 27.7259 67.163 28.0028 66.9499 28.358C66.7369 28.7131 66.6303 29.1226 66.6303 29.5866V36H64.0593ZM71.989 36V25.0909H74.4464V26.9446H74.5742C74.8015 26.3196 75.1779 25.8319 75.7035 25.4815C76.229 25.1264 76.8564 24.9489 77.5856 24.9489C78.3242 24.9489 78.9469 25.1288 79.4535 25.4886C79.9648 25.8437 80.3247 26.3291 80.533 26.9446H80.6467C80.8881 26.3385 81.2953 25.8556 81.8683 25.4957C82.4459 25.1312 83.1301 24.9489 83.9208 24.9489C84.9246 24.9489 85.7437 25.2661 86.3782 25.9006C87.0127 26.535 87.3299 27.4607 87.3299 28.6776V36H84.7518V29.0753C84.7518 28.3982 84.5719 27.9034 84.212 27.5909C83.8522 27.2737 83.4118 27.1151 82.891 27.1151C82.2707 27.1151 81.7854 27.3092 81.435 27.6974C81.0894 28.081 80.9165 28.5805 80.9165 29.196V36H78.3952V28.9688C78.3952 28.4053 78.2248 27.9555 77.8839 27.6193C77.5477 27.2831 77.1074 27.1151 76.5629 27.1151C76.1935 27.1151 75.8574 27.2098 75.5543 27.3991C75.2513 27.5838 75.0098 27.8466 74.8299 28.1875C74.65 28.5237 74.56 28.9167 74.56 29.3665V36H71.989ZM93.0774 36.2202C92.3861 36.2202 91.7635 36.0971 91.2095 35.8509C90.6603 35.5999 90.2247 35.2306 89.9027 34.7429C89.5855 34.2552 89.4268 33.6539 89.4268 32.9389C89.4268 32.3234 89.5405 31.8144 89.7678 31.4119C89.995 31.0095 90.3052 30.6875 90.6982 30.446C91.0911 30.2045 91.5339 30.0223 92.0263 29.8991C92.5234 29.7713 93.0372 29.679 93.5675 29.6222C94.2067 29.5559 94.7251 29.4967 95.1229 29.4446C95.5206 29.3878 95.8094 29.3026 95.9893 29.1889C96.174 29.0705 96.2663 28.8883 96.2663 28.642V28.5994C96.2663 28.0644 96.1077 27.6501 95.7905 27.3565C95.4732 27.063 95.0163 26.9162 94.4197 26.9162C93.79 26.9162 93.2905 27.0535 92.9212 27.3281C92.5566 27.6027 92.3104 27.9271 92.1825 28.3011L89.782 27.9602C89.9714 27.2973 90.2839 26.7434 90.7195 26.2983C91.1551 25.8485 91.6877 25.5123 92.3175 25.2898C92.9472 25.0625 93.6432 24.9489 94.4055 24.9489C94.9311 24.9489 95.4543 25.0104 95.9751 25.1335C96.496 25.2566 96.9718 25.4602 97.4027 25.7443C97.8336 26.0237 98.1792 26.4048 98.4396 26.8878C98.7048 27.3707 98.8374 27.9744 98.8374 28.6989V36H96.3658V34.5014H96.2805C96.1243 34.8045 95.9041 35.0885 95.62 35.3537C95.3407 35.6141 94.9879 35.8248 94.5618 35.9858C94.1404 36.142 93.6456 36.2202 93.0774 36.2202ZM93.745 34.331C94.2611 34.331 94.7086 34.2292 95.0874 34.0256C95.4661 33.8172 95.7573 33.5426 95.9609 33.2017C96.1693 32.8608 96.2734 32.4891 96.2734 32.0866V30.8011C96.1929 30.8674 96.0556 30.929 95.8615 30.9858C95.6721 31.0426 95.459 31.0923 95.2223 31.1349C94.9856 31.1776 94.7512 31.2154 94.5192 31.2486C94.2872 31.2817 94.0859 31.3101 93.9155 31.3338C93.532 31.3859 93.1887 31.4711 92.8857 31.5895C92.5826 31.7079 92.3435 31.8736 92.1683 32.0866C91.9931 32.295 91.9055 32.5649 91.9055 32.8963C91.9055 33.3698 92.0784 33.7273 92.424 33.9688C92.7696 34.2102 93.21 34.331 93.745 34.331ZM103.994 29.608V36H101.423V25.0909H103.88V26.9446H104.008C104.259 26.3338 104.659 25.8485 105.208 25.4886C105.762 25.1288 106.446 24.9489 107.261 24.9489C108.013 24.9489 108.669 25.1098 109.228 25.4318C109.791 25.7538 110.227 26.2202 110.535 26.831C110.847 27.4418 111.001 28.1828 110.996 29.054V36H108.425V29.4517C108.425 28.7225 108.236 28.152 107.857 27.7401C107.483 27.3281 106.965 27.1222 106.302 27.1222C105.852 27.1222 105.452 27.2216 105.102 27.4205C104.756 27.6146 104.484 27.8963 104.285 28.2656C104.091 28.6349 103.994 29.0824 103.994 29.608ZM117.658 36.1918C116.801 36.1918 116.034 35.9716 115.357 35.5312C114.68 35.0909 114.145 34.4517 113.752 33.6136C113.359 32.7756 113.163 31.7576 113.163 30.5597C113.163 29.3475 113.362 28.3248 113.759 27.4915C114.162 26.6534 114.704 26.0213 115.386 25.5952C116.067 25.1643 116.827 24.9489 117.665 24.9489C118.305 24.9489 118.83 25.0578 119.242 25.2756C119.654 25.4886 119.981 25.7467 120.222 26.0497C120.464 26.348 120.651 26.6297 120.783 26.8949H120.89V21.4545H123.468V36H120.94V34.2812H120.783C120.651 34.5464 120.459 34.8281 120.208 35.1264C119.957 35.42 119.626 35.6709 119.214 35.8793C118.802 36.0876 118.283 36.1918 117.658 36.1918ZM118.376 34.0824C118.92 34.0824 119.384 33.9356 119.768 33.642C120.151 33.3437 120.442 32.9295 120.641 32.3991C120.84 31.8688 120.94 31.2509 120.94 30.5455C120.94 29.84 120.84 29.2268 120.641 28.706C120.447 28.1851 120.158 27.7803 119.775 27.4915C119.396 27.2027 118.93 27.0582 118.376 27.0582C117.803 27.0582 117.325 27.2074 116.941 27.5057C116.558 27.804 116.269 28.2159 116.075 28.7415C115.88 29.267 115.783 29.8684 115.783 30.5455C115.783 31.2273 115.88 31.8357 116.075 32.3707C116.273 32.901 116.565 33.3201 116.948 33.6278C117.336 33.9309 117.812 34.0824 118.376 34.0824ZM129.347 36.2202C128.656 36.2202 128.033 36.0971 127.479 35.8509C126.93 35.5999 126.494 35.2306 126.172 34.7429C125.855 34.2552 125.696 33.6539 125.696 32.9389C125.696 32.3234 125.81 31.8144 126.037 31.4119C126.265 31.0095 126.575 30.6875 126.968 30.446C127.361 30.2045 127.803 30.0223 128.296 29.8991C128.793 29.7713 129.307 29.679 129.837 29.6222C130.476 29.5559 130.995 29.4967 131.392 29.4446C131.79 29.3878 132.079 29.3026 132.259 29.1889C132.444 29.0705 132.536 28.8883 132.536 28.642V28.5994C132.536 28.0644 132.377 27.6501 132.06 27.3565C131.743 27.063 131.286 26.9162 130.689 26.9162C130.06 26.9162 129.56 27.0535 129.191 27.3281C128.826 27.6027 128.58 27.9271 128.452 28.3011L126.051 27.9602C126.241 27.2973 126.553 26.7434 126.989 26.2983C127.425 25.8485 127.957 25.5123 128.587 25.2898C129.217 25.0625 129.913 24.9489 130.675 24.9489C131.201 24.9489 131.724 25.0104 132.245 25.1335C132.766 25.2566 133.241 25.4602 133.672 25.7443C134.103 26.0237 134.449 26.4048 134.709 26.8878C134.974 27.3707 135.107 27.9744 135.107 28.6989V36H132.635V34.5014H132.55C132.394 34.8045 132.174 35.0885 131.89 35.3537C131.61 35.6141 131.257 35.8248 130.831 35.9858C130.41 36.142 129.915 36.2202 129.347 36.2202ZM130.015 34.331C130.531 34.331 130.978 34.2292 131.357 34.0256C131.736 33.8172 132.027 33.5426 132.23 33.2017C132.439 32.8608 132.543 32.4891 132.543 32.0866V30.8011C132.462 30.8674 132.325 30.929 132.131 30.9858C131.942 31.0426 131.729 31.0923 131.492 31.1349C131.255 31.1776 131.021 31.2154 130.789 31.2486C130.557 31.2817 130.355 31.3101 130.185 31.3338C129.801 31.3859 129.458 31.4711 129.155 31.5895C128.852 31.7079 128.613 31.8736 128.438 32.0866C128.263 32.295 128.175 32.5649 128.175 32.8963C128.175 33.3698 128.348 33.7273 128.694 33.9688C129.039 34.2102 129.48 34.331 130.015 34.331ZM141.74 36.1918C140.883 36.1918 140.116 35.9716 139.439 35.5312C138.762 35.0909 138.227 34.4517 137.834 33.6136C137.441 32.7756 137.245 31.7576 137.245 30.5597C137.245 29.3475 137.444 28.3248 137.841 27.4915C138.244 26.6534 138.786 26.0213 139.468 25.5952C140.15 25.1643 140.909 24.9489 141.748 24.9489C142.387 24.9489 142.912 25.0578 143.324 25.2756C143.736 25.4886 144.063 25.7467 144.304 26.0497C144.546 26.348 144.733 26.6297 144.865 26.8949H144.972V21.4545H147.55V36H145.022V34.2812H144.865C144.733 34.5464 144.541 34.8281 144.29 35.1264C144.039 35.42 143.708 35.6709 143.296 35.8793C142.884 36.0876 142.365 36.1918 141.74 36.1918ZM142.458 34.0824C143.002 34.0824 143.466 33.9356 143.85 33.642C144.233 33.3437 144.525 32.9295 144.723 32.3991C144.922 31.8688 145.022 31.2509 145.022 30.5455C145.022 29.84 144.922 29.2268 144.723 28.706C144.529 28.1851 144.24 27.7803 143.857 27.4915C143.478 27.2027 143.012 27.0582 142.458 27.0582C141.885 27.0582 141.407 27.2074 141.023 27.5057C140.64 27.804 140.351 28.2159 140.157 28.7415C139.962 29.267 139.865 29.8684 139.865 30.5455C139.865 31.2273 139.962 31.8357 140.157 32.3707C140.355 32.901 140.647 33.3201 141.03 33.6278C141.418 33.9309 141.894 34.0824 142.458 34.0824ZM39.3026 60H36.4901L41.6108 45.4545H44.8636L49.9915 60H47.179L43.294 48.4375H43.1804L39.3026 60ZM39.3949 54.2969H47.0653V56.4134H39.3949V54.2969ZM54.3647 53.608V60H51.7937V49.0909H54.2511V50.9446H54.3789C54.6299 50.3338 55.0299 49.8485 55.5792 49.4886C56.1332 49.1288 56.8174 48.9489 57.6317 48.9489C58.3846 48.9489 59.0404 49.1098 59.5991 49.4318C60.1625 49.7538 60.5981 50.2202 60.9059 50.831C61.2184 51.4418 61.3723 52.1828 61.3675 53.054V60H58.7965V53.4517C58.7965 52.7225 58.6071 52.152 58.2283 51.7401C57.8543 51.3281 57.3358 51.1222 56.6729 51.1222C56.2231 51.1222 55.823 51.2216 55.4727 51.4205C55.127 51.6146 54.8548 51.8963 54.6559 52.2656C54.4618 52.6349 54.3647 53.0824 54.3647 53.608ZM63.9812 60V49.0909H66.5522V60H63.9812ZM65.2738 47.5426C64.8666 47.5426 64.5162 47.4077 64.2227 47.1378C63.9291 46.8632 63.7823 46.5341 63.7823 46.1506C63.7823 45.7623 63.9291 45.4332 64.2227 45.1634C64.5162 44.8887 64.8666 44.7514 65.2738 44.7514C65.6857 44.7514 66.0361 44.8887 66.3249 45.1634C66.6185 45.4332 66.7653 45.7623 66.7653 46.1506C66.7653 46.5341 66.6185 46.8632 66.3249 47.1378C66.0361 47.4077 65.6857 47.5426 65.2738 47.5426ZM69.196 60V49.0909H71.6534V50.9446H71.7812C72.0085 50.3196 72.3849 49.8319 72.9105 49.4815C73.4361 49.1264 74.0634 48.9489 74.7926 48.9489C75.5312 48.9489 76.1539 49.1288 76.6605 49.4886C77.1719 49.8437 77.5317 50.3291 77.7401 50.9446H77.8537C78.0952 50.3385 78.5024 49.8556 79.0753 49.4957C79.6529 49.1312 80.3371 48.9489 81.1278 48.9489C82.1316 48.9489 82.9508 49.2661 83.5852 49.9006C84.2197 50.535 84.5369 51.4607 84.5369 52.6776V60H81.9588V53.0753C81.9588 52.3982 81.7789 51.9034 81.419 51.5909C81.0592 51.2737 80.6188 51.1151 80.098 51.1151C79.4777 51.1151 78.9924 51.3092 78.642 51.6974C78.2964 52.081 78.1236 52.5805 78.1236 53.196V60H75.6023V52.9688C75.6023 52.4053 75.4318 51.9555 75.0909 51.6193C74.7547 51.2831 74.3144 51.1151 73.7699 51.1151C73.4006 51.1151 73.0644 51.2098 72.7614 51.3991C72.4583 51.5838 72.2169 51.8466 72.0369 52.1875C71.857 52.5237 71.767 52.9167 71.767 53.3665V60H69.196ZM90.2844 60.2202C89.5932 60.2202 88.9705 60.0971 88.4165 59.8509C87.8673 59.5999 87.4317 59.2306 87.1097 58.7429C86.7925 58.2552 86.6339 57.6539 86.6339 56.9389C86.6339 56.3234 86.7475 55.8144 86.9748 55.4119C87.2021 55.0095 87.5122 54.6875 87.9052 54.446C88.2982 54.2045 88.7409 54.0223 89.2333 53.8991C89.7305 53.7713 90.2442 53.679 90.7745 53.6222C91.4137 53.5559 91.9322 53.4967 92.3299 53.4446C92.7276 53.3878 93.0165 53.3026 93.1964 53.1889C93.381 53.0705 93.4734 52.8883 93.4734 52.642V52.5994C93.4734 52.0644 93.3147 51.6501 92.9975 51.3565C92.6803 51.063 92.2234 50.9162 91.6268 50.9162C90.997 50.9162 90.4975 51.0535 90.1282 51.3281C89.7636 51.6027 89.5174 51.9271 89.3896 52.3011L86.989 51.9602C87.1784 51.2973 87.4909 50.7434 87.9265 50.2983C88.3621 49.8485 88.8948 49.5123 89.5245 49.2898C90.1542 49.0625 90.8503 48.9489 91.6126 48.9489C92.1381 48.9489 92.6613 49.0104 93.1822 49.1335C93.703 49.2566 94.1789 49.4602 94.6097 49.7443C95.0406 50.0237 95.3862 50.4048 95.6467 50.8878C95.9118 51.3707 96.0444 51.9744 96.0444 52.6989V60H93.5728V58.5014H93.4876C93.3313 58.8045 93.1112 59.0885 92.8271 59.3537C92.5477 59.6141 92.195 59.8248 91.7688 59.9858C91.3474 60.142 90.8526 60.2202 90.2844 60.2202ZM90.9521 58.331C91.4682 58.331 91.9156 58.2292 92.2944 58.0256C92.6732 57.8172 92.9644 57.5426 93.168 57.2017C93.3763 56.8608 93.4805 56.4891 93.4805 56.0866V54.8011C93.4 54.8674 93.2627 54.929 93.0685 54.9858C92.8791 55.0426 92.6661 55.0923 92.4293 55.1349C92.1926 55.1776 91.9582 55.2154 91.7262 55.2486C91.4942 55.2817 91.293 55.3101 91.1225 55.3338C90.739 55.3859 90.3957 55.4711 90.0927 55.5895C89.7897 55.7079 89.5505 55.8736 89.3754 56.0866C89.2002 56.295 89.1126 56.5649 89.1126 56.8963C89.1126 57.3698 89.2854 57.7273 89.631 57.9688C89.9767 58.2102 90.417 58.331 90.9521 58.331ZM101.201 45.4545V60H98.6296V45.4545H101.201Z" fill="#332100"/>
<defs>
<clipPath id="clip0_2_272">
<rect width="24" height="24" fill="white" transform="translate(0 29)"/>
</clipPath>
</defs>
</svg>
