<svg width="26" height="26" viewBox="0 0 26 26" fill="none" xmlns="http://www.w3.org/2000/svg">
<path d="M11.9167 18.4166H14.0834V14.0833H18.4167V11.9166H14.0834V7.58329H11.9167V11.9166H7.58342V14.0833H11.9167V18.4166ZM13.0001 23.8333C11.5015 23.8333 10.0931 23.5534 8.77508 22.9937C7.45703 22.4159 6.3105 21.6395 5.3355 20.6645C4.3605 19.6895 3.58411 18.543 3.00633 17.225C2.44661 15.9069 2.16675 14.4986 2.16675 13C2.16675 11.5013 2.44661 10.093 3.00633 8.77496C3.58411 7.4569 4.3605 6.31037 5.3355 5.33538C6.3105 4.36037 7.45703 3.59301 8.77508 3.03329C10.0931 2.45551 11.5015 2.16663 13.0001 2.16663C14.4987 2.16663 15.907 2.45551 17.2251 3.03329C18.5431 3.59301 19.6897 4.36037 20.6647 5.33538C21.6397 6.31037 22.407 7.4569 22.9667 8.77496C23.5445 10.093 23.8334 11.5013 23.8334 13C23.8334 14.4986 23.5445 15.9069 22.9667 17.225C22.407 18.543 21.6397 19.6895 20.6647 20.6645C19.6897 21.6395 18.5431 22.4159 17.2251 22.9937C15.907 23.5534 14.4987 23.8333 13.0001 23.8333ZM13.0001 21.6666C15.4195 21.6666 17.4688 20.827 19.148 19.1479C20.8272 17.4687 21.6667 15.4194 21.6667 13C21.6667 10.5805 20.8272 8.53121 19.148 6.85204C17.4688 5.17288 15.4195 4.33329 13.0001 4.33329C10.5806 4.33329 8.53133 5.17288 6.85216 6.85204C5.173 8.53121 4.33341 10.5805 4.33341 13C4.33341 15.4194 5.173 17.4687 6.85216 19.1479C8.53133 20.827 10.5806 21.6666 13.0001 21.6666Z" fill="#332100"/>
</svg>
