<svg width="48" height="48" viewBox="0 0 48 48" fill="none" xmlns="http://www.w3.org/2000/svg">
<path d="M39.78 45.86C39.6 45.86 39.42 45.86 39.22 45.84C32.76 45.14 26.48 42.9 21.06 39.38C16.02 36.18 11.66 31.82 8.45999 26.78C4.93999 21.34 2.69999 15.04 2.01999 8.58C1.93999 7.72 2.03999 6.9 2.29999 6.1C2.55999 5.3 2.99999 4.58 3.55999 3.96C4.11999 3.34 4.79999 2.86 5.55999 2.52C6.33999 2.18 7.15999 2 7.99999 2H14C15.4 2 16.84 2.5 17.96 3.46C19.06 4.4 19.78 5.72 19.98 7.16C20.22 8.94 20.66 10.7 21.28 12.36C21.68 13.44 21.78 14.6 21.52 15.72C21.28 16.84 20.72 17.88 19.92 18.68L18.48 20.12C20.84 23.8 23.96 26.94 27.66 29.3L29.1 27.86C29.92 27.04 30.96 26.48 32.08 26.26C33.2 26.02 34.36 26.1 35.44 26.5C37.1 27.12 38.86 27.56 40.62 27.8C42.1 28 43.42 28.74 44.38 29.86C45.32 30.98 45.84 32.4 45.8 33.86V39.84C45.8 40.68 45.64 41.48 45.3 42.26C44.96 43.02 44.46 43.72 43.86 44.28C43.24 44.84 42.52 45.28 41.72 45.54C41.08 45.76 40.44 45.86 39.78 45.86ZM14.04 6H14.02H7.99999C7.71999 6 7.45999 6.06 7.19999 6.18C6.93999 6.28 6.69999 6.44 6.51999 6.64C6.31999 6.84 6.17999 7.08 6.09999 7.36C6.01999 7.62 5.97999 7.9 5.99999 8.18C6.61999 14 8.63999 19.68 11.82 24.62C14.72 29.18 18.66 33.12 23.22 36.02C28.14 39.22 33.82 41.22 39.62 41.86C39.86 41.88 40.14 41.84 40.4 41.76C40.66 41.68 40.9 41.52 41.12 41.34C41.34 41.16 41.5 40.92 41.6 40.66C41.72 40.4 41.76 40.12 41.76 39.84V33.84C41.76 33.82 41.76 33.8 41.76 33.8C41.78 33.3 41.6 32.84 41.28 32.46C40.96 32.08 40.52 31.84 40.04 31.78C38 31.52 35.96 31 34 30.28C33.64 30.14 33.24 30.12 32.88 30.2C32.5 30.28 32.16 30.46 31.88 30.74L29.36 33.28C28.72 33.92 27.74 34.04 26.96 33.6C21.64 30.58 17.24 26.16 14.2 20.86C13.78 20.02 13.9 19.04 14.54 18.4L17.08 15.86C17.34 15.6 17.52 15.26 17.6 14.88C17.68 14.5 17.66 14.12 17.52 13.76C16.78 11.8 16.28 9.76 16 7.7C15.94 7.24 15.7 6.8 15.34 6.48C14.98 6.18 14.52 6 14.04 6Z" fill="#332100"/>
</svg>
